<?xml version="1.0" encoding="UTF-8"?>
<!-- Generator: Adobe Illustrator 20.1.0, SVG Export Plug-In . SVG Version: 6.00 Build 0)  -->
<svg version="1.1" id="Слой_1" xmlns="http://www.w3.org/2000/svg" xmlns:xlink="http://www.w3.org/1999/xlink" x="0px" y="0px" viewBox="0 0 3642 951" style="enable-background:new 0 0 3642 951;" xml:space="preserve">
<style type="text/css">
	.st1{fill:#FEFEFE;}
	.st2{fill:#2B2A29;}
	.st3{fill:#C4601F;}
</style>
<g id="Слой_x0020_1">
	<g id="_839901888">
		<g>
			<g>
				<polygon class="st1" points="566.3,0 623.8,138.8 761.6,162 659.5,249.8 692.8,385.8 564.9,310.9 438.7,385.6 476.4,243.9       364,146.9 506.9,137.8     "/>
				<polygon class="st2" points="566.6,54.3 609.3,157.4 711.7,174.6 635.9,239.9 660.6,341 565.6,285.3 471.8,340.9 499.8,235.5       416.2,163.5 522.4,156.7     "/>
				<path class="st3" d="M565.4,102.6l30.6,68.7l70.5,15.4l-48.7,48.5l13.5,66.1l-53.5-30.4v-13.7l-11.9,6.9l-64.6,37.1l15.8-72.5      L469,177.8c36.4-2.6,74.5-4.9,110.9-6.9l-40.7-9.5L565.4,102.6L565.4,102.6z"/>
			</g>
			<path class="st1" d="M838.8,638.9l247.3,168c0,0,32,18.7,19.5,63.3c-12.5,44.5-47.6,72.6-47.6,72.6s-20.5,16-56.1,3.2     c-34-12.2-99.3-58.9-129.9-79.4c-60.5-40.7-121.3-85.1-121.3-85.1L678.8,862l-65.2-43.3l42.2-77c0,0-128.1-86.3-167.2-112.1     c-99.5-65.7-273.1-155.2-360.3-247.8C74.3,324.5,13.7,237.4,0.4,160.2c0,0,45.2,22.6,87.7,41.1c92.4,40,171.5,65.8,251.7,102.5     c46.9,21.5,94.1,47.4,144.5,80.1c13.4,8.7,28.3,19.4,44.9,29.8c6.8,4.2,14.5,9.2,23,14.7l-10.7,30.3l29.3-18.2     c79,52.1,196.7,133.7,196.7,133.7c8-32.8,20.8-57.9,51.5-73.1c39.5-19.6,90.3,7.4,89.6,52.1C908,597.3,870,614.2,838.8,638.9     L838.8,638.9z"/>
			<path class="st2" d="M818.8,651.4l248.5,170c14,9.6,20.2,13.2,18.6,33.8c-1.6,20.7-15.2,44.9-25.8,58.2     c-21.4,27-44.2,17.4-70,2.8c-12.5-7-32.6-17.6-62.4-37.2c-41.4-27.3-180.8-122.2-180.8-122.2l-71.9,79.7l-34-24.6l40.6-75.4     l-108.2-72.2L382.1,542.4C216.2,436.7,130,386.7,47.1,232.3c-12.7-23.7-17.2-35.2-17.2-35.2s87.9,42.9,155.8,66.4     c68,23.4,204.8,87.7,225.9,100.2c21.1,12.5,42.4,24.8,42.4,24.8l-10.1,22.7l21.9-15.2l23.4,17.2l-8.2,26.2l23-15.6l20.7,13.3     l-7.8,28.5l25-16.4l20.7,13.7l-4.3,26.6l19.1-16l21.9,13.3l-7.4,25.8l28.1-13.3l18.4,12.9l-6,29.5l26.7-14.2l16.4,11.3l-4.5,26     l19.5-14.1l20.3,14.3l-6.4,25.2l23.2-17.6l55.4,33.6c3.2-48.5,41.5-109.8,88.1-82.9c22.4,13,20.1,48.6-1.4,67.5     c-12.9,11.3-37.4,26.8-52.6,36.1l2.1,1.3L818.8,651.4L818.8,651.4z M802.5,602.9c1.1-24.8,34.3-78.9,56.2-64.5     c11.1,7.2,5.7,22.1-4.2,34.4C840,590.9,813.9,605.8,802.5,602.9L802.5,602.9z"/>
			<path class="st1" d="M414.7,375.6c0,0-73.8-37.8-166.8-74.2S106.6,246,98,242.9c-8.6-3.1-21.1-10.2-21.1-10.2     S128.1,335,221.4,408c27.8,21.8,69.1,54.1,124.3,91.4C475.7,587.3,648,693.1,648,693.1l27.2-44.1L390.5,469.4     c0,0-96.8-60.5-135.9-87.1c-30.4-20.7-88.1-62.4-110.6-98.8c0,0,140.2,56.8,189.4,70.8C382.7,368.4,414.7,375.6,414.7,375.6     L414.7,375.6z"/>
			
				<ellipse transform="matrix(0.5558 -0.8313 0.8313 0.5558 -180.8585 432.8652)" class="st1" cx="314.6" cy="385.7" rx="16.5" ry="29.3"/>
			<path class="st3" d="M812.2,668.7l14.8,9.8v110c-23.6-16-47.2-32-71.1-47.6L812.2,668.7L812.2,668.7z M840.8,687.7l22.1,14.7     v110.5c-7.4-5-14.8-10-22.1-14.9V687.7z M876.7,711.5l23.3,15.4v110.5c-7.8-5.1-15.6-10.2-23.3-15.4V711.5z M913.8,736l22.5,14.9     v109.6c-7.6-4.7-15.1-9.4-22.5-14.2V736z M950.2,760.1l19.3,12.8v107.5c-6.5-3.7-12.9-7.6-19.3-11.4V760.1z M983.2,782l53.3,35.3     c15.8,10.4,29.5,18.5,21.3,41.7c-8.2,23-15.5,32.2-23,41c-7.5,8.8-17.7,6.7-40-5.4c-3.9-2.1-7.7-4.2-11.6-6.4V782z"/>
			<g>
				<path class="st1" d="M286.7,638.9l-247.3,168c0,0-32,18.7-19.5,63.3s47.6,72.6,47.6,72.6s20.5,16,56.1,3.2      c34-12.2,99.3-58.9,129.9-79.4c60.5-40.7,121.3-85.1,121.3-85.1l71.8,80.5l65.2-43.3l-42.2-77c0,0,128.1-86.3,167.1-112.1      c99.5-65.7,273.1-155.2,360.3-247.8c53.9-57.3,114.6-144.4,127.9-221.6c0,0-45.2,22.6-87.7,41.1      c-92.4,40-171.5,65.8-251.7,102.5c-46.9,21.5-94.1,47.4-144.5,80.1c-13.4,8.7-28.2,19.4-44.9,29.8      c-68.7,43-238.2,160.5-238.2,160.5c-8-32.8-20.8-57.9-51.5-73.1c-39.5-19.6-90.3,7.4-89.6,52.1      C217.6,597.3,255.6,614.2,286.7,638.9L286.7,638.9z"/>
				<path class="st2" d="M306.8,651.4l-248.5,170c-14,9.6-20.2,13.2-18.7,33.8c1.6,20.7,15.2,44.9,25.8,58.2      c21.4,27,44.2,17.4,70,2.8c12.5-7,32.6-17.6,62.4-37.2c41.4-27.3,180.8-122.2,180.8-122.2l71.8,79.7l34-24.6l-40.6-75.4      L552,664.3l191.4-121.9c166-105.7,252.2-155.7,335.1-310.1c12.7-23.7,17.2-35.2,17.2-35.2s-87.9,42.9-155.8,66.4      c-68,23.4-204.8,87.7-225.9,100.2c-21.1,12.5-42.4,24.8-42.4,24.8l10.2,22.7L659.8,396l-23.4,17.2l8.2,26.2l-23-15.6L600.9,437      l7.8,28.5l-25-16.4L563,462.7l4.3,26.6l-19.1-16l-21.9,13.3l7.4,25.8l-28.1-13.3L487.2,512l6,29.5l-26.7-14.2l-16.4,11.3l4.5,26      l-19.5-14.1l-20.3,14.3l6.4,25.2L398,572.3l-55.4,33.6c-3.2-48.5-41.5-109.8-88.1-82.9c-22.4,13-20.1,48.6,1.4,67.5      c12.9,11.3,37.4,26.8,52.6,36.1l-2.1,1.3L306.8,651.4L306.8,651.4z M323,602.9c-1.1-24.8-34.3-78.9-56.2-64.5      c-11.1,7.2-5.7,22.1,4.2,34.4C285.6,590.9,311.6,605.8,323,602.9z"/>
				<path class="st1" d="M710.8,375.6c0,0,73.8-37.8,166.8-74.2c92.9-36.3,141.4-55.5,150-58.6c8.6-3.1,21.1-10.2,21.1-10.2      S997.5,335,904.1,408c-27.8,21.8-69.1,54.1-124.3,91.4c-130,87.9-302.3,193.7-302.3,193.7L450.3,649L735,469.4      c0,0,96.9-60.5,135.9-87.1c30.4-20.7,88.1-62.4,110.5-98.8c0,0-140.2,56.8-189.4,70.8C742.8,368.4,710.8,375.6,710.8,375.6      L710.8,375.6z"/>
				
					<ellipse transform="matrix(0.8313 -0.5558 0.5558 0.8313 -77.5672 515.7916)" class="st1" cx="810.9" cy="385.7" rx="29.3" ry="16.5"/>
				<path class="st3" d="M313.4,668.7l-14.8,9.8v110c23.6-16,47.2-32,71.1-47.6L313.4,668.7z M284.7,687.7l-22.2,14.7v110.5      c7.4-5,14.8-10,22.2-14.9V687.7z M248.8,711.5l-23.3,15.4v110.5c7.8-5.1,15.6-10.2,23.3-15.4V711.5z M211.7,736l-22.5,14.9      v109.6c7.5-4.7,15.1-9.4,22.5-14.2L211.7,736L211.7,736z M175.4,760.1l-19.3,12.8v107.5c6.5-3.7,12.9-7.6,19.3-11.4V760.1z       M142.3,782L89,817.2c-15.7,10.4-29.5,18.5-21.3,41.7c8.2,23,15.5,32.2,23,41c7.5,8.8,17.7,6.7,40-5.4c3.9-2.1,7.7-4.2,11.6-6.4      V782z"/>
			</g>
		</g>
		<path class="st1" d="M1544.4,292.4v136.9h-183v25h166.6V583h-166.6v153.3h-172.8V292.4L1544.4,292.4L1544.4,292.4z M1479.5,357.4    h-225.9v313.9h42.9V364.4h183V357.4z"/>
		<polygon class="st2" points="1221.1,324.9 1511.9,324.9 1511.9,396.9 1329,396.9 1329,486.8 1495.6,486.8 1495.6,550.5     1329,550.5 1329,703.8 1221.1,703.8   "/>
		<path class="st1" d="M2624.3,292.4c131.3,0,3.4,0,172.5,0l50.7,184.7l49.3-184.7c177.4,0,23.8,0,203.4,0v443.8h-160.8v-68.1    l-18,68.1h-149.7l-20.3-74.7v74.7h-159.6V292.4L2624.3,292.4L2624.3,292.4z M2747.6,357.4H2736l85.3,313.9h12.3L2747.6,357.4    L2747.6,357.4z M2686.5,357.4h-29.7v313.9h29.7V357.4z M2879.3,609.4l-16.5,61.8h8.8l82.9-313.9h-7.9L2879.3,609.4L2879.3,609.4z     M3035.2,357.4h-30.9v313.9h30.9V357.4L3035.2,357.4z"/>
		<polygon class="st3" points="2624.3,324.9 2772.2,324.9 2847.9,601.1 2921.7,324.9 3067.7,324.9 3067.7,703.8 2971.9,703.8     2971.9,418.3 2896.5,703.8 2796.5,703.8 2718.9,418.3 2718.9,703.8 2624.3,703.8   "/>
		<path class="st1" d="M3308.7,292.4l50.7,184.7l49.3-184.7c177.4,0,23.8,0,203.4,0v443.8h-160.8v-68.1l-18,68.1h-149.7l-20.3-74.7    v74.7h-159.6V292.4C3278.8,292.4,3131.1,292.4,3308.7,292.4L3308.7,292.4z M3259.4,357.4h-11.5l85.3,313.9h12.3L3259.4,357.4    L3259.4,357.4z M3198.4,357.4h-29.7v313.9h29.7V357.4z M3391.2,609.4l-16.5,61.8h8.8l82.9-313.9h-7.9L3391.2,609.4L3391.2,609.4z     M3547.1,357.4h-30.9v313.9h30.9V357.4L3547.1,357.4z"/>
		<polygon class="st3" points="3136.2,324.9 3284.1,324.9 3359.8,601.1 3433.6,324.9 3579.6,324.9 3579.6,703.8 3483.8,703.8     3483.8,418.3 3408.4,703.8 3308.4,703.8 3230.8,418.3 3230.8,703.8 3136.2,703.8   "/>
		<path class="st1" d="M2262.3,292.4h352.6v143h-107.6v300.8H2335V435.4h-105.2v-143L2262.3,292.4L2262.3,292.4z M2549.9,357.4    h-255.1v13.1h105.2v300.8h42.4V370.4h107.6L2549.9,357.4L2549.9,357.4z"/>
		<polygon class="st2" points="2262.3,324.9 2582.3,324.9 2582.3,402.9 2474.8,402.9 2474.8,703.8 2367.5,703.8 2367.5,402.9     2262.3,402.9   "/>
		<path class="st1" d="M1585.2,357.4v7h61.4l37.7,93.9l-132,213.1h28.4L1699,471l94,211.4l65.9-27.1l-5.7-14.9l-41.5,15.9    l-139.9-298.9L1585.2,357.4L1585.2,357.4z M1520.2,396.8V292.4h192.6l132,281.9l45.9-17.6L1942,691l-182.5,75.2L1691,612.1    l-73.3,124.2H1436l176-284.2l-9.2-22.8h-82.7L1520.2,396.8L1520.2,396.8z"/>
		<polygon class="st3" points="1552.7,324.9 1552.7,396.8 1624.7,396.8 1648.2,455.2 1494.2,703.8 1599.3,703.8 1695,541.5     1776.3,724.3 1900.5,673.1 1871.9,598.5 1828.2,615.3 1692.3,324.9   "/>
		<path class="st1" d="M2187.9,357.7v-1.4c-19.1-1.3-43.6-3-62-3.7l-31.2-1.3v-57.5h-27.2v57.7l-31.5,1c-3.4,0.1-7.4,0.3-11.8,0.4    c-2.7,0.1-6.3,0.3-10.6,0.5c-10.3,0.6-25.2,5.6-35.9,16.3c-6.8,6.9-11.7,16.5-11.6,29.4c0.2,28.4-0.1,43-0.3,52.2    c-0.2,6.8-0.2,9.7,0.2,13.2c0.3,2.7,0.3,3,0.3,3.4c0.6,7,2.1,25.6,34.9,33.7c17.1,4.2,36.8,8,56,11.6c19.9,3.8,39.4,7.4,57.1,12    c15.6,4,25.8,9.8,33.7,21.3c7.1,10.5,9.2,21.3,9.2,36.6v29.9c0,17.3-6.6,31-17,40.9c-11.1,10.5-25.8,15.8-40.8,15.8v-0.1    c-27.1,0.7-54.6,0.7-83,0.3c-18.1-0.3-36.2-0.7-54.5-1.3v1.1c22.7,1.3,53.4,3.1,74.4,4l31.2,1.3v50.6h27.2V676l32.5-0.1    c4.2,0,8.5-0.1,12.9-0.2c3.3-0.1,7.1-0.2,11.4-0.5c51.2-2.8,50.1-52.4,49.9-65.6c0-1.3-0.1-2.3-0.1-3.7h-0.1v-51.3    c0-3.4-0.3-11.2-3.5-18.4c-2.8-6.1-8.3-12.4-19.3-15.9c-27-8.4-70.1-16-98.3-20.9c-15.3-2.7-26.6-4.6-32.6-6.7    c-10.4-3.5-19.9-9.7-26.8-17.9c-7.6-9.1-12.3-20.2-12.3-32.7v-26.5c0-16.6,6.2-30.7,15.9-41.1c10.8-11.5,25.8-18,41.6-18v0.1    c27.1-0.7,50.8-0.7,75.4-0.3C2156.4,356.7,2171.6,357.1,2187.9,357.7L2187.9,357.7z M2252.8,326.2v99l-33.7-1.4    c-30.5-1.3-55.6-2.2-79-2.6c-21.8-0.4-43.1-0.4-67,0.1v11.1l18,3.1c29.7,5.2,75,13.1,106.4,23c32.7,10.2,50,30.9,59.2,51.1    c8.6,19.2,9.3,37.2,9.3,45.1V606h-0.1l0.1,2.4c0.6,26.1,2.7,122.6-106.4,131.2v50.9h-157.1v-53.7c-36.7-1.9-74.9-4.3-75.1-4.3    l-30.6-1.9V601.2l33.7,1.4c30.5,1.3,59.3,2.2,86.5,2.6c25.5,0.4,50.4,0.4,75.1-0.2v-18.6c-13.3-3.1-29.9-6.3-46.9-9.5    c-20.2-3.8-41-7.7-59.6-12.4c-78.3-19.4-82.5-71.8-84.1-91.6c-0.1-1.5,0-0.4-0.1-1.7c-0.7-6.8-0.6-11.1-0.4-21.3    c0.2-9,0.5-23.4,0.3-50.6c-0.2-32.6,12.5-57.4,30.4-75.3c20.7-20.7,48.8-31.6,70.7-34.6v-60.7h157.1v60.7    c32.2,1.9,63.2,4.3,63.3,4.3l29.9,2.4V326.2z"/>
		<path class="st2" d="M2220.3,391.4v-65.2c0,0-55.9-4.4-93.2-5.9v-58.9h-92.2v58.8c-8.3,0.3-16.2,0.6-23.2,1    c-28.5,1.6-78.5,24.3-78.1,78.2c0.4,53.9-1.2,58,0,68.7c1.2,10.6,0.1,50.4,59.8,65.2c35.8,8.9,81.1,15.3,112.9,23.5    c15.2,3.9,18.4,9,18.4,26.6V606v0v0.3v0.2v0.2v0.2v0.2v0.2v0.2v0.2v0.2v0.1v0.1v0.1v0.1v0.1v0.1v0.1v0.1v0.1v0v0v0l0,0v4.1    c0,16.2-12.1,24.2-25.4,24.2c-54,1.3-109.5,0.2-170-2.3v65.2c0,0,66.1,4.2,105.6,5.8v52.1h92.2v-49.8c9.5,0,18.3-0.2,26.1-0.6    c87.6-4.8,80.3-88.2,80.4-101.6v-51.3c0-11.3-1.9-51.5-45.7-65.2c-43.7-13.7-121.1-24.2-130.4-27.3c-9.4-3.1-16.8-10.6-16.8-19.9    c0-9.4,0-26.5,0-26.5c0-16.2,11.8-26.6,25-26.6C2119.7,387.8,2159.9,388.8,2220.3,391.4L2220.3,391.4z"/>
	</g>
</g>
</svg>